<svg width="15" height="18" viewBox="0 0 15 18" fill="none" xmlns="http://www.w3.org/2000/svg">
<path d="M12.0314 0.811306C12.0315 0.77513 12.1379 0.785407 12.1609 0.755907C12.2579 0.632843 12.3451 0.616787 12.4483 0.51439C12.6016 0.362604 12.7996 -0.236095 13.3849 0.101811C13.3849 0.101816 13.3849 0.101822 13.3849 0.101827C13.3907 0.105143 13.3964 0.108547 13.4022 0.112044C13.5127 0.17829 13.6081 0.294058 13.7303 0.373612C13.8526 0.453182 14.6699 0.918324 14.6784 1.00936C14.6847 1.13786 14.3461 1.242 14.3265 1.2973C14.3132 1.33514 14.3629 1.41993 14.3509 1.47119C14.3119 1.63647 14.2153 1.67889 14.3431 1.92187C14.2078 1.91142 14.0726 1.90098 13.9373 1.89054C13.9482 1.98511 13.7505 2.00477 13.735 2.04944C13.7222 2.08609 13.7949 2.15382 13.7789 2.19046C13.7615 2.23183 13.6368 2.23884 13.6099 2.31688C13.5655 2.44456 13.7723 2.59126 13.7602 2.6763C13.7476 2.76446 13.5645 2.80716 13.5887 2.9429C13.6061 2.96824 13.6236 2.99358 13.641 3.01892C13.7001 3.04212 13.7593 3.06531 13.8184 3.08851C13.8172 3.14913 13.6943 3.10455 13.6679 3.14565C13.6367 3.19398 13.7277 3.28036 13.7079 3.31354C13.6916 3.34067 13.5854 3.32892 13.5702 3.36753C13.5476 3.42357 13.6765 3.48288 13.6833 3.52398C13.6857 3.54024 13.6345 3.78493 13.6288 3.7971C13.5826 3.88815 13.4107 3.79915 13.3555 3.86107C13.2028 4.03322 13.2224 4.31173 13.1693 4.52182C13.1457 4.61565 13.0874 4.69416 13.0142 4.75909C12.6587 4.38501 12.1633 4.47266 12.8945 4.75507C12.7474 4.78943 12.8919 4.95738 12.8123 5.0245C12.7607 5.06781 12.6458 5.05208 12.603 5.1318C12.5277 5.27359 12.7042 5.5782 12.2034 5.34233C12.1934 5.55408 11.9386 5.5953 12.3264 5.8976C12.3279 5.95454 12.0144 5.91729 11.9531 5.94476C11.8951 5.97082 11.5841 6.24767 11.5454 6.30002C11.5067 6.35237 11.4432 6.44643 11.453 6.51497C11.4646 6.60066 11.8781 6.89461 11.3057 6.70484C11.2763 6.85141 11.2364 6.88666 11.1112 6.96644C11.0885 6.9809 11.0112 6.9394 11.0042 6.95142C10.9898 6.97628 11.0215 7.05097 11.0027 7.09929C10.9718 7.17873 10.788 7.12814 11.0367 7.26089C11.0499 7.33262 11.063 7.40434 11.0761 7.47607C11.0193 7.46575 10.9625 7.45544 10.9056 7.44513C10.9421 7.50048 10.9786 7.55583 11.015 7.61119C10.6794 7.37711 10.7832 7.67844 11.0198 7.73664C10.8929 7.78772 10.766 7.8388 10.6391 7.88988C10.2453 7.64516 10.4746 8.0679 10.7034 8.17555C10.6969 8.18604 10.6904 8.19653 10.6839 8.20701C10.5233 8.23885 10.5611 8.37501 10.4237 8.44754C10.2864 8.52006 10.2535 8.48682 10.0489 8.41486C10.044 8.44776 10.0391 8.48066 10.0342 8.51355C10.4591 8.94632 9.59726 8.41561 9.84645 8.88049C9.48399 8.77378 9.54158 9.05984 9.56544 9.24124C9.56819 9.26234 9.62978 9.29823 9.63757 9.3287C9.65585 9.40277 9.50631 9.4785 9.70785 9.58931C9.62594 9.59812 9.54403 9.60693 9.46212 9.61574C9.47847 9.67104 9.49483 9.72633 9.51118 9.78163C9.57344 9.81734 9.6357 9.85306 9.69796 9.88877C9.44612 9.83571 9.46472 9.99153 9.38307 10.016C9.36664 10.0207 9.27956 9.97352 9.237 9.99322C9.18683 10.016 9.17045 10.103 9.11696 10.1337C9.20157 10.2066 9.28617 10.2794 9.37078 10.3522C9.37455 10.4646 9.10706 10.349 9.05954 10.3863C9.05111 10.3931 8.97702 10.563 8.97741 10.5747C8.97922 10.6695 9.20432 10.7729 9.04108 10.95C9.01188 10.9815 8.92105 10.9681 8.89917 10.9991C8.8604 11.0539 8.92736 11.325 9.07433 11.4282C8.83996 11.3864 8.81079 11.6199 8.72284 11.6429C8.69598 11.6497 8.57034 11.5821 8.51443 11.6183C8.46899 11.6475 8.506 11.8117 8.459 11.8549C8.40865 11.9005 8.29338 11.8606 8.27156 11.8815C8.25106 11.9012 8.32218 11.9714 8.30304 12.0035C8.2419 12.1026 8.0544 12.1161 8.00591 12.1944C7.93547 12.3074 8.1246 12.5523 8.17899 12.7123C8.1491 12.727 8.08231 12.7198 8.06733 12.7446C7.8803 13.0506 7.63242 13.3744 7.39956 13.6551C7.29172 13.7856 6.74766 13.9508 7.36455 14.179C7.43388 14.286 6.99661 14.5206 6.95309 14.5881C6.90961 14.6556 6.9785 14.7688 6.94846 14.8243C6.85772 14.9916 6.71819 15.0657 6.69007 15.3169C6.68309 15.3819 6.77033 15.5063 6.75123 15.5361C6.72795 15.5719 6.58963 15.5451 6.55467 15.5887C6.47224 15.6933 6.38742 15.9278 6.30427 16.0257C6.28883 16.0435 6.18349 15.992 6.13532 16.0023C5.94735 16.0422 5.88605 16.1732 6.2222 16.3378C6.12544 16.3511 6.07596 16.3899 6.04899 16.4404C5.47516 17.2394 4.48667 17.3369 4.08167 16.4405C4.02868 16.3554 3.91 16.3119 3.85491 16.2315C3.67256 15.9641 3.45403 15.4113 3.17753 15.2462C3.00314 15.1421 2.86036 15.2298 2.85499 14.9314C2.85377 14.8652 2.86237 14.7936 2.86034 14.7136C2.85589 14.526 3.04827 14.2404 2.66259 14.318C2.65484 14.1112 2.52258 14.0193 2.73084 13.7423C2.6566 13.7667 2.58237 13.7911 2.50814 13.8154C2.49528 13.797 2.48243 13.7785 2.46957 13.76C2.52924 13.7175 2.5889 13.6749 2.64857 13.6324C2.58522 13.4834 2.22365 13.4567 2.15752 13.3378C2.0464 13.1386 1.85353 12.5716 1.83062 12.3351C1.81847 12.2095 1.6801 12.2823 1.92532 12.0648C1.89313 12.0537 1.86094 12.0427 1.82876 12.0316C1.75983 12.0528 1.6909 12.0741 1.62197 12.0953C1.54588 11.9691 1.5531 11.7632 1.48196 11.6422C1.35215 11.4219 0.992554 11.1861 0.974224 10.9002C0.969787 10.8284 1.05511 10.6862 1.02217 10.6324C0.974334 10.554 0.754794 10.655 0.692668 10.5564C0.585976 10.3863 0.641159 9.92277 0.527791 9.76917C0.494256 9.72346 0.403572 9.74546 0.375838 9.71655C0.258707 9.59579 0.198047 9.47615 7.7486e-06 9.40984C0.115713 9.14908 0.380727 9.01282 0.614788 8.81757C0.791364 8.67007 1.1858 8.30264 1.34914 8.18851C1.4639 8.10832 1.64179 8.05762 1.7663 7.96622C1.9731 8.0792 1.89849 8.2199 1.79317 8.46941C1.95152 8.72646 2.10987 8.98351 2.26821 9.24056C2.20937 9.30624 2.15052 9.37192 2.09168 9.4376C2.09152 9.43769 2.09136 9.43778 2.0912 9.43787C2.0654 9.5866 2.27686 9.52122 2.35054 9.55086C3.05595 9.83454 3.32691 11.0381 3.61052 11.635C3.67176 11.7636 4.00045 12.107 3.93129 12.2594C3.9132 12.299 3.8048 12.3697 3.81335 12.3957C3.99975 12.5649 4.18616 12.734 4.37256 12.9032C4.44515 13.4305 4.84356 13.7889 5.1187 14.2036C5.38157 14.5997 5.64556 14.9932 5.90501 15.3877L4.22563 15.3877C4.61387 14.6147 5.01241 13.8533 5.45728 13.1228C5.59037 12.9046 5.66861 12.5755 5.84772 12.3901C5.92232 12.3126 6.12378 12.3787 6.0584 12.1827C6.10753 12.2094 6.15667 12.2361 6.20581 12.2628C6.20719 12.1254 6.13525 11.9956 6.19113 11.8729C6.23836 11.7698 6.38062 11.5068 6.44904 11.431C6.48418 11.3915 6.56501 11.4604 6.58868 11.4184C6.62855 11.3459 6.59176 11.1208 6.64878 11.022C6.70043 10.9326 6.89173 10.8419 6.91635 10.7644C7.00579 10.4858 7.00709 10.1267 7.20091 9.88665C7.25472 9.82049 7.42618 9.79442 7.4361 9.76969C7.45503 9.72115 7.34875 9.64207 7.3514 9.60364C7.36525 9.4087 7.63765 9.24962 7.72915 9.10353C8.02737 8.6275 8.27497 8.08378 8.57539 7.61181C8.7651 7.31358 9.03846 6.7938 9.28719 6.56095C9.34085 6.51075 9.45632 6.59906 9.48583 6.54793C9.51853 6.49123 9.45192 6.41184 9.4604 6.38142C9.51853 6.17049 9.66698 5.71648 9.85314 5.59314C9.88873 5.56972 10.0004 5.60227 10.0114 5.58232C10.0172 5.57233 9.96345 5.51121 9.97474 5.4759C10.0743 5.16403 10.2298 4.98454 10.4094 4.72633C10.7529 4.23152 10.9764 3.5575 11.3589 3.05021C11.4422 2.93966 11.6828 2.96978 11.6905 2.95192C11.7078 2.91295 11.5913 2.81432 11.6021 2.72139C11.6391 2.41315 11.9703 2.16035 12.0408 1.88752C12.0757 1.75279 12.0027 1.49775 12.0321 1.36232C12.0556 1.25413 12.245 1.07589 12.1958 0.99354C12.1662 0.943621 12.032 0.850965 12.0314 0.811306ZM12.4462 5.15251C12.2306 5.00632 12.3189 5.28526 12.4767 5.29086C12.5122 5.29212 12.5022 5.19044 12.4462 5.15251ZM7.4334 12.9326C7.49858 12.9681 7.56376 13.0037 7.62894 13.0392C7.61515 13.0013 7.60136 12.9634 7.58758 12.9255C7.54165 12.9158 7.49573 12.9062 7.44981 12.8965C7.44434 12.9085 7.43887 12.9205 7.4334 12.9326Z" fill="#7A120E"/>
</svg>
